PathFileType	4	(x/y/z)	A01_T0012.trc
DataRate	CameraRate	NumFrames	NumMarkers	Units	OrigDataRate	OrigDataStartFrame	OrigNumFrames
240	240	11	47	mm	240	451	1200
Frame#	Time	R_AC			L_AC			R_ASIS			L_ASIS			R_PSIS			L_PSIS			R_GT			L_GT			R_IC			L_IC			SACRAL			R_THIGH_PROX_POST			L_THIGH_PROX_POST			R_THIGH_PROX_ANT			L_THIGH_PROX_ANT			R_THIGH_DIST_POST			L_THIGH_DIST_POST			R_THIGH_DIST_ANT			L_THIGH_DIST_ANT			R_LAT_KNEE			R_MED_KNEE			L_LAT_KNEE			L_MED_KNEE			L_PROS_PROX_ANT			L_PROS_PROX_POST			L_PROS_DIST_ANT			L_PROS_DIST_POST			R_LL_PROX_ANT			R_LL_PROX_POST			R_LL_DIST_POST			R_LL_DIST_ANT			R_LAT_ANK			R_MED_ANK			L_MED_ANK			L_LAT_ANK			L_TOE			R_TOE			L_5TH_MET			L_1ST_MET			R_1ST_MET			R_5TH_MET			R_HEEL_SUP			L_HEEL_SUP			R_HEEL_LAT			L_HEEL_LAT			L_HEEL_MED			R_HEEL_MED			
		X1	Y1	Z1	X2	Y2	Z2	X3	Y3	Z3	X4	Y4	Z4	X5	Y5	Z5	X6	Y6	Z6	X7	Y7	Z7	X8	Y8	Z8	X9	Y9	Z9	X10	Y10	Z10	X11	Y11	Z11	X12	Y12	Z12	X13	Y13	Z13	X14	Y14	Z14	X15	Y15	Z15	X16	Y16	Z16	X17	Y17	Z17	X18	Y18	Z18	X19	Y19	Z19	X20	Y20	Z20	X21	Y21	Z21	X22	Y22	Z22	X23	Y23	Z23	X24	Y24	Z24	X25	Y25	Z25	X26	Y26	Z26	X27	Y27	Z27	X28	Y28	Z28	X29	Y29	Z29	X30	Y30	Z30	X31	Y31	Z31	X32	Y32	Z32	X33	Y33	Z33	X34	Y34	Z34	X35	Y35	Z35	X36	Y36	Z36	X37	Y37	Z37	X38	Y38	Z38	X39	Y39	Z39	X40	Y40	Z40	X41	Y41	Z41	X42	Y42	Z42	X43	Y43	Z43	X44	Y44	Z44	X45	Y45	Z45	X46	Y46	Z46	X47	Y47	Z47	

451	1.8766	596.46	1569.2	546.66	645.73	1586.2	126.47	701.86	1080.9	535.79	766.12	1068.5	181.81	511.24	1076.5	372.38	539.95	1090.7	246.5	637.24	967.02	558.09	716.85	978.13	125.58	642.78	1176.8	544.29	726.24	1171.2	140.09	511.27	1054.2	302.36	603.84	839.45	536.44	716.04	837.84	133.3	670.85	862.88	551.41	781.2	834.02	163.56	615.57	750.85	532.41	728.12	762.54	142.42	679.99	771.42	548.77	788.2	760.22	168.79	644.95	560.1	509.94	693.13	550.83	384.37	725.96	582.32	159.45	739.21	553.63	314.8	751.31	491.13	162.91	698.25	504.47	151.55	730.58	438.51	162.79	677.88	444.58	152.61	583.18	384.45	532.75	520.25	403.53	500	524	320.43	498.78	574.9	309.61	520.16	522.52	110.55	491.32	559.86	115.68	390.94	599.98	147.86	202.11	572.17	153.1	135.73	794.15	75.039	151.03	766.38	72.177	470.05	680	55.115	79.006	711.44	57.487	206.66	690.39	57.596	410.94	641.46	45.667	539.07	439.8	69.933	420.7	475.61	111.53	166.63	443.19	45.466	456.2	480.87	82.719	135.1	490.05	79.607	197.8	454.17	44.599	394.62
452	1.8807	596.52	1569.2	546.68	645.78	1586.2	126.5	701.9	1080.9	535.81	766.14	1068.5	181.83	511.27	1076.5	372.41	539.96	1090.7	246.51	637.26	967.02	558.11	716.87	978.14	125.6	642.82	1176.8	544.33	726.28	1171.2	140.11	511.3	1054.2	302.38	603.86	839.46	536.47	716.05	837.85	133.31	670.86	862.89	551.43	781.21	834.03	163.58	615.58	750.85	532.44	728.12	762.55	142.44	680	771.44	548.79	788.2	760.22	168.81	644.94	560.11	509.95	693.11	550.84	384.38	725.95	582.33	159.46	739.2	553.63	314.8	751.3	491.13	162.92	698.24	504.48	151.56	730.58	438.51	162.79	677.87	444.59	152.62	583.18	384.45	532.77	520.24	403.53	500.03	524.01	320.43	498.8	574.91	309.61	520.17	522.52	110.55	491.32	559.87	115.69	390.94	599.98	147.86	202.11	572.17	153.11	135.73	794.15	75.039	151.03	766.38	72.172	470.06	680	55.116	79.005	711.44	57.488	206.66	690.39	57.595	410.95	641.46	45.665	539.07	439.8	69.944	420.7	475.61	111.53	166.63	443.19	45.471	456.2	480.87	82.721	135.1	490.05	79.607	197.79	454.16	44.612	394.62
453	1.8849	596.58	1569.2	546.71	645.82	1586.2	126.53	701.93	1081	535.84	766.17	1068.5	181.86	511.3	1076.5	372.44	539.97	1090.7	246.52	637.29	967.02	558.14	716.89	978.15	125.62	642.87	1176.8	544.36	726.32	1171.2	140.13	511.33	1054.2	302.41	603.87	839.47	536.49	716.05	837.86	133.33	670.88	862.89	551.46	781.22	834.03	163.59	615.58	750.86	532.46	728.12	762.56	142.45	680.01	771.45	548.81	788.2	760.22	168.82	644.94	560.11	509.97	693.09	550.86	384.39	725.94	582.33	159.46	739.19	553.64	314.81	751.29	491.14	162.92	698.23	504.48	151.56	730.57	438.52	162.8	677.87	444.59	152.62	583.19	384.45	532.78	520.24	403.53	500.07	524.01	320.44	498.82	574.91	309.61	520.18	522.53	110.56	491.32	559.87	115.69	390.94	599.98	147.86	202.11	572.17	153.11	135.73	794.15	75.038	151.03	766.38	72.168	470.06	680	55.116	79.004	711.44	57.489	206.66	690.39	57.595	410.95	641.46	45.663	539.07	439.8	69.955	420.7	475.61	111.53	166.62	443.19	45.476	456.2	480.87	82.722	135.1	490.05	79.607	197.79	454.16	44.626	394.62
454	1.8891	596.63	1569.2	546.74	645.87	1586.2	126.56	701.97	1081	535.86	766.2	1068.5	181.88	511.33	1076.5	372.47	539.99	1090.8	246.52	637.31	967.03	558.16	716.9	978.16	125.65	642.91	1176.8	544.39	726.36	1171.2	140.15	511.36	1054.2	302.44	603.88	839.49	536.51	716.06	837.87	133.34	670.89	862.9	551.48	781.22	834.04	163.61	615.58	750.87	532.48	728.12	762.57	142.46	680.02	771.46	548.83	788.19	760.23	168.84	644.93	560.12	509.98	693.08	550.87	384.39	725.93	582.34	159.47	739.17	553.64	314.81	751.28	491.15	162.92	698.22	504.49	151.57	730.56	438.52	162.8	677.86	444.6	152.62	583.19	384.45	532.8	520.24	403.53	500.1	524.01	320.44	498.84	574.92	309.61	520.18	522.53	110.56	491.32	559.88	115.69	390.94	599.98	147.86	202.11	572.17	153.11	135.73	794.15	75.038	151.03	766.38	72.163	470.06	680	55.117	79.003	711.44	57.49	206.66	690.39	57.595	410.95	641.46	45.66	539.08	439.8	69.966	420.69	475.61	111.53	166.62	443.2	45.482	456.2	480.87	82.723	135.1	490.05	79.608	197.79	454.16	44.639	394.61
455	1.8932	596.68	1569.2	546.77	645.91	1586.2	126.59	702	1081	535.89	766.23	1068.5	181.91	511.37	1076.6	372.5	540	1090.8	246.53	637.34	967.03	558.19	716.92	978.17	125.67	642.96	1176.8	544.43	726.4	1171.2	140.18	511.39	1054.2	302.46	603.89	839.5	536.53	716.06	837.88	133.36	670.9	862.9	551.5	781.23	834.04	163.63	615.58	750.88	532.5	728.12	762.58	142.48	680.02	771.47	548.85	788.19	760.23	168.86	644.92	560.13	509.99	693.06	550.89	384.4	725.91	582.35	159.48	739.16	553.65	314.82	751.27	491.16	162.93	698.2	504.5	151.57	730.55	438.53	162.8	677.85	444.6	152.63	583.19	384.46	532.81	520.23	403.54	500.13	524.01	320.44	498.86	574.93	309.62	520.19	522.54	110.57	491.33	559.88	115.69	390.94	599.98	147.86	202.1	572.17	153.11	135.73	794.15	75.038	151.03	766.38	72.158	470.06	680	55.117	79.002	711.43	57.491	206.66	690.39	57.594	410.95	641.46	45.659	539.08	439.8	69.977	420.69	475.61	111.53	166.62	443.2	45.487	456.2	480.87	82.724	135.1	490.05	79.608	197.79	454.16	44.652	394.61
456	1.8974	596.74	1569.2	546.79	645.96	1586.2	126.61	702.03	1081	535.91	766.25	1068.5	181.93	511.4	1076.6	372.53	540.01	1090.8	246.53	637.36	967.04	558.21	716.94	978.18	125.69	643	1176.9	544.46	726.44	1171.2	140.2	511.42	1054.2	302.48	603.9	839.52	536.55	716.07	837.9	133.37	670.91	862.91	551.53	781.23	834.05	163.65	615.58	750.88	532.52	728.11	762.59	142.49	680.03	771.48	548.87	788.19	760.24	168.87	644.9	560.14	510	693.04	550.9	384.41	725.9	582.36	159.49	739.14	553.65	314.82	751.26	491.17	162.93	698.19	504.51	151.57	730.54	438.54	162.81	677.84	444.61	152.63	583.2	384.46	532.82	520.23	403.54	500.16	524.01	320.45	498.87	574.93	309.62	520.19	522.54	110.57	491.33	559.89	115.7	390.95	599.98	147.87	202.1	572.17	153.11	135.73	794.15	75.038	151.03	766.39	72.153	470.06	680	55.118	79.001	711.43	57.492	206.66	690.4	57.594	410.95	641.46	45.657	539.08	439.8	69.987	420.69	475.61	111.54	166.62	443.2	45.493	456.2	480.87	82.726	135.09	490.05	79.608	197.78	454.16	44.665	394.61
457	1.9016	596.79	1569.3	546.82	646	1586.2	126.64	702.06	1081	535.94	766.28	1068.5	181.96	511.43	1076.6	372.56	540.03	1090.9	246.54	637.38	967.04	558.23	716.96	978.2	125.71	643.04	1176.9	544.49	726.48	1171.2	140.22	511.45	1054.3	302.51	603.91	839.53	536.57	716.07	837.91	133.39	670.92	862.91	551.55	781.24	834.06	163.66	615.58	750.89	532.53	728.11	762.6	142.5	680.03	771.49	548.89	788.19	760.24	168.89	644.89	560.14	510.01	693.02	550.92	384.41	725.89	582.37	159.49	739.13	553.66	314.83	751.25	491.18	162.93	698.18	504.51	151.58	730.53	438.54	162.81	677.83	444.61	152.63	583.19	384.46	532.83	520.22	403.55	500.18	524	320.45	498.88	574.93	309.63	520.2	522.54	110.58	491.33	559.89	115.7	390.95	599.97	147.87	202.1	572.17	153.11	135.73	794.15	75.038	151.03	766.39	72.149	470.06	680	55.119	79	711.43	57.493	206.66	690.4	57.594	410.95	641.46	45.655	539.08	439.8	69.996	420.69	475.61	111.54	166.62	443.2	45.499	456.2	480.87	82.728	135.09	490.05	79.609	197.78	454.16	44.678	394.6
458	1.9058	596.84	1569.3	546.85	646.05	1586.2	126.67	702.09	1081	535.97	766.31	1068.5	181.99	511.46	1076.6	372.59	540.05	1090.9	246.55	637.41	967.05	558.26	716.98	978.21	125.73	643.08	1176.9	544.52	726.52	1171.2	140.25	511.48	1054.3	302.53	603.92	839.54	536.58	716.08	837.93	133.4	670.93	862.92	551.57	781.24	834.06	163.68	615.58	750.9	532.55	728.11	762.61	142.52	680.03	771.5	548.91	788.18	760.25	168.9	644.87	560.15	510.02	693	550.93	384.42	725.87	582.38	159.5	739.11	553.66	314.83	751.23	491.19	162.94	698.16	504.52	151.58	730.52	438.55	162.81	677.82	444.62	152.63	583.19	384.47	532.84	520.21	403.55	500.21	524	320.46	498.89	574.93	309.63	520.2	522.55	110.58	491.33	559.9	115.7	390.95	599.97	147.87	202.1	572.17	153.11	135.73	794.16	75.038	151.03	766.39	72.144	470.06	680	55.119	78.998	711.43	57.494	206.66	690.4	57.594	410.95	641.46	45.654	539.08	439.8	70.005	420.68	475.61	111.54	166.61	443.21	45.504	456.2	480.87	82.729	135.09	490.05	79.61	197.78	454.16	44.689	394.6
459	1.9099	596.89	1569.3	546.88	646.1	1586.3	126.7	702.13	1081	535.99	766.34	1068.5	182.01	511.5	1076.7	372.61	540.07	1090.9	246.56	637.43	967.06	558.28	717	978.23	125.75	643.12	1176.9	544.56	726.56	1171.2	140.27	511.5	1054.3	302.56	603.92	839.56	536.6	716.08	837.94	133.42	670.94	862.92	551.59	781.25	834.07	163.7	615.57	750.91	532.56	728.1	762.63	142.53	680.03	771.51	548.93	788.18	760.26	168.92	644.85	560.16	510.03	692.99	550.95	384.43	725.85	582.39	159.51	739.09	553.67	314.84	751.22	491.2	162.94	698.15	504.53	151.58	730.51	438.56	162.82	677.8	444.63	152.64	583.18	384.47	532.85	520.2	403.56	500.23	523.99	320.46	498.9	574.92	309.64	520.2	522.55	110.58	491.33	559.9	115.7	390.95	599.97	147.87	202.1	572.16	153.11	135.73	794.16	75.038	151.03	766.39	72.14	470.06	680	55.12	78.997	711.43	57.495	206.66	690.4	57.594	410.95	641.46	45.653	539.08	439.8	70.013	420.68	475.61	111.54	166.61	443.21	45.51	456.2	480.87	82.732	135.09	490.05	79.61	197.77	454.16	44.7	394.6
460	1.9141	596.93	1569.3	546.91	646.14	1586.3	126.72	702.16	1081	536.02	766.37	1068.5	182.04	511.53	1076.7	372.64	540.09	1091	246.57	637.45	967.06	558.31	717.02	978.24	125.77	643.16	1176.9	544.59	726.6	1171.3	140.3	511.53	1054.3	302.58	603.93	839.57	536.61	716.08	837.96	133.43	670.95	862.93	551.62	781.25	834.08	163.71	615.57	750.92	532.58	728.1	762.64	142.54	680.03	771.52	548.95	788.17	760.26	168.93	644.83	560.17	510.04	692.97	550.96	384.43	725.84	582.4	159.52	739.07	553.67	314.84	751.2	491.21	162.94	698.13	504.54	151.59	730.5	438.57	162.82	677.79	444.63	152.64	583.18	384.48	532.86	520.18	403.57	500.25	523.98	320.47	498.91	574.92	309.64	520.2	522.55	110.59	491.34	559.9	115.71	390.96	599.97	147.88	202.1	572.16	153.12	135.72	794.16	75.038	151.03	766.39	72.136	470.06	680	55.121	78.996	711.43	57.495	206.66	690.4	57.594	410.95	641.46	45.652	539.08	439.81	70.02	420.68	475.61	111.54	166.61	443.21	45.516	456.2	480.87	82.734	135.08	490.05	79.612	197.77	454.17	44.711	394.6
461	1.9183	596.98	1569.3	546.94	646.19	1586.3	126.75	702.19	1081	536.05	766.4	1068.5	182.06	511.56	1076.7	372.67	540.11	1091	246.59	637.47	967.07	558.33	717.04	978.26	125.79	643.19	1176.9	544.62	726.64	1171.3	140.32	511.56	1054.3	302.6	603.93	839.58	536.63	716.09	837.98	133.45	670.95	862.93	551.64	781.26	834.09	163.73	615.56	750.93	532.59	728.09	762.66	142.55	680.03	771.53	548.97	788.17	760.27	168.95	644.81	560.18	510.04	692.95	550.97	384.44	725.82	582.41	159.52	739.05	553.68	314.85	751.19	491.23	162.95	698.12	504.55	151.59	730.48	438.58	162.82	677.78	444.64	152.64	583.16	384.49	532.87	520.17	403.58	500.26	523.97	320.48	498.92	574.91	309.65	520.2	522.56	110.59	491.34	559.91	115.71	390.96	599.97	147.88	202.1	572.16	153.12	135.72	794.16	75.039	151.04	766.4	72.132	470.06	680.01	55.122	78.995	711.43	57.496	206.66	690.4	57.594	410.95	641.46	45.651	539.09	439.81	70.026	420.68	475.62	111.55	166.6	443.21	45.521	456.2	480.88	82.737	135.08	490.05	79.613	197.77	454.17	44.72	394.6
